# xmcd
#
# Track frame offsets:
#	150
#	11112
#	26121
#	41587
#	55819
#	72952
#	91283
#	110875
#	131151
#	148054
#	166405
#	184739
#	202969
#	219597
#	230346
#	245838
#	261661
#	277198
#	294159
#	312488
# Disc length: 4406 seconds
# Revision: 2
# Processed by: cddbd v1.5.1PL0 Copyright (c) Steve Scherf et al.
#
# Submitted via: libkcddb 0.10
#
DISCID=42113414
DTITLE=The Jayhawks - Rainy Day Music
DYEAR=2002
DGENRE=
TTITLE0=Stumbling Through The Dark
TTITLE1=Tailspin
TTITLE2=All The Right Reasons
TTITLE3=Save It For A Rainy Day
TTITLE4=Eyes Of Sarahjane
TTITLE5=One Man's Problem
TTITLE6=Don't Let The World Get In Your Way
TTITLE7=Come To The River
TTITLE8=Angelyne
TTITLE9=Madman
TTITLE10=You Look So Young
TTITLE11=Tampa To Tulsa
TTITLE12=Will I See You In Heaven
TTITLE13=Stumbling Through The Dark (Reprise)
TTITLE14=Fools On Parade (exclusive track for spanish magazine)
TTITLE15=Say Your Prayers (demo)
TTITLE16=All The Right Reasons (acoustic version)
TTITLE17=Caught With A Smile On My Face (demo)
TTITLE18=Tampa To Tulsa (acoustic version)
TTITLE19=Waiting For The Sun (acoustic version -live - 26/04/02)
EXTD=
EXTT0=
EXTT1=
EXTT2=
EXTT3=
EXTT4=
EXTT5=
EXTT6=
EXTT7=
EXTT8=
EXTT9=
EXTT10=
EXTT11=
EXTT12=
EXTT13=
EXTT14=
EXTT15=
EXTT16=
EXTT17=
EXTT18=
EXTT19=
PLAYORDER=
